<?xml version="1.0" encoding="utf-8"?>
<!-- Generator: Adobe Illustrator 14.0.0, SVG Export Plug-In . SVG Version: 6.00 Build 43363)  -->
<!DOCTYPE svg PUBLIC "-//W3C//DTD SVG 1.1//EN" "http://www.w3.org/Graphics/SVG/1.1/DTD/svg11.dtd">
<svg version="1.1" id="Layer_1" xmlns="http://www.w3.org/2000/svg" xmlns:xlink="http://www.w3.org/1999/xlink" x="0px" y="0px"
	 width="50px" height="50px" viewBox="0 0 50 50" enable-background="new 0 0 50 50" xml:space="preserve">
<path fill="#26B0E3" d="M11.723,32.098c1.428-0.952,1.979-0.487,2.769,0.302c1.146,1.146,3.477,4.308,4.088,4.716
	c0.779,0.519,1.428,0.519,2.552,0c1.125-0.52,6.684-4.585,9.367-7.225c2.682-2.639,6.575-7.225,6.878-9.258
	c0.303-2.033-0.281-2.142-1.06-2.92s-3.47-2.862-4.218-3.85c-0.606-0.8-0.303-1.493,0-2.358s4.932-8.22,5.451-9.128
	c0.52-0.909,1.774-1.449,3.808-0.238c2.033,1.211,6.477,3.557,7.008,9.453c0.476,5.278-2.509,11.897-6.446,17.608
	c-3.937,5.711-8.725,10.976-17.132,15.358c-6.598,3.439-13.531,5.201-18.646,0.865c-4.261-3.612-4.435-7.484-3.958-7.831
	C2.731,37.193,11.723,32.098,11.723,32.098z"/>
</svg>
